<svg width="500" height="500" viewBox="0 0 500 500" xmlns="http://www.w3.org/2000/svg">
<style>
	path {
		fill: '#212121';
	}
	@media (prefers-color-scheme: dark) {
		path {
			fill: '#E0E0E0';
		}
	}
</style>
<path d="M125.176 344.504C116.712 344.504 109.811 341.737 104.473 336.203C99.1341 330.734 96.4648 323.638 96.4648 314.914V280.637C96.4648 273.671 94.0885 268.234 89.3359 264.328C84.5833 260.422 78.0078 258.306 69.6094 257.98V244.602C78.0729 244.276 84.6484 242.128 89.3359 238.156C94.0885 234.185 96.4648 228.814 96.4648 222.043V187.668C96.4648 178.749 99.1016 171.587 104.375 166.184C109.648 160.78 116.582 158.078 125.176 158.078H151.055V171.652H130.254C124.329 171.652 120.065 173.085 117.461 175.949C114.857 178.814 113.555 183.729 113.555 190.695V224.484C113.555 230.865 111.471 236.496 107.305 241.379C103.138 246.197 97.7018 249.419 90.9961 251.047V251.242C97.6367 252.805 103.04 255.995 107.207 260.812C111.439 265.565 113.555 271.294 113.555 278V311.887C113.555 318.788 114.857 323.671 117.461 326.535C120.065 329.465 124.329 330.93 130.254 330.93H151.055V344.504H125.176Z"/>
<path d="M348.75 344.504V330.93H369.551C375.475 330.93 379.74 329.465 382.344 326.535C385.013 323.671 386.348 318.788 386.348 311.887V278C386.348 271.359 388.431 265.63 392.598 260.812C396.764 255.995 402.168 252.805 408.809 251.242V251.047C402.168 249.419 396.764 246.164 392.598 241.281C388.431 236.398 386.348 230.799 386.348 224.484V190.695C386.348 183.859 385.046 178.977 382.441 176.047C379.837 173.117 375.54 171.652 369.551 171.652H348.75V158.078H374.629C383.288 158.078 390.221 160.78 395.43 166.184C400.703 171.587 403.34 178.749 403.34 187.668V222.043C403.34 228.879 405.716 234.283 410.469 238.254C415.221 242.16 421.797 244.276 430.195 244.602V257.98C421.732 258.306 415.124 260.454 410.371 264.426C405.684 268.332 403.34 273.736 403.34 280.637V314.914C403.34 323.703 400.671 330.832 395.332 336.301C389.993 341.77 383.092 344.504 374.629 344.504H348.75Z"/>
<path d="M168.412 242.152V226.037H242.629V242.152H168.412ZM168.412 281.971V266H242.629V281.971H168.412ZM257.299 242.152V226.037H331.516V242.152H257.299ZM257.299 281.971V266H331.516V281.971H257.299Z"/>
</svg>
